<?xml version="1.0" encoding="UTF-8" standalone="no"?>
<!DOCTYPE svg PUBLIC "-//W3C//DTD SVG 1.1//EN"
 "http://www.w3.org/Graphics/SVG/1.1/DTD/svg11.dtd">
<!-- Generated by graphviz version 14.1.4 (20260321.0153)
 -->
<!-- Title: S2 Pages: 1 -->
<svg width="656pt" height="205pt"
 viewBox="0.00 0.00 656.00 205.00" xmlns="http://www.w3.org/2000/svg" xmlns:xlink="http://www.w3.org/1999/xlink">
<g id="graph0" class="graph" transform="scale(1 1) rotate(0) translate(4 201)">
<title>S2</title>
<polygon fill="white" stroke="none" points="-4,4 -4,-201 652.38,-201 652.38,4 -4,4"/>
<g id="clust1" class="cluster">
<title>cluster_dl</title>
<path fill="#e7f2e9" stroke="#4c8a57" d="M35,-114.75C35,-114.75 189,-114.75 189,-114.75 195,-114.75 201,-120.75 201,-126.75 201,-126.75 201,-177 201,-177 201,-183 195,-189 189,-189 189,-189 35,-189 35,-189 29,-189 23,-183 23,-177 23,-177 23,-126.75 23,-126.75 23,-120.75 29,-114.75 35,-114.75"/>
<text xml:space="preserve" text-anchor="middle" x="112" y="-173.6" font-family="Helvetica,sans-Serif" font-size="12.00" fill="#2f5e38">Data Logger shield</text>
</g>
<g id="clust2" class="cluster">
<title>cluster_wifi</title>
<path fill="#e7f2e9" stroke="#4c8a57" d="M372,-114.75C372,-114.75 486,-114.75 486,-114.75 492,-114.75 498,-120.75 498,-126.75 498,-126.75 498,-177 498,-177 498,-183 492,-189 486,-189 486,-189 372,-189 372,-189 366,-189 360,-183 360,-177 360,-177 360,-126.75 360,-126.75 360,-120.75 366,-114.75 372,-114.75"/>
<text xml:space="preserve" text-anchor="middle" x="429" y="-173.6" font-family="Helvetica,sans-Serif" font-size="12.00" fill="#2f5e38">WINC1500 WiFi shield</text>
</g>
<g id="clust3" class="cluster">
<title>cluster_board</title>
<path fill="#e8eef7" stroke="#5b7db1" d="M20,-8C20,-8 408,-8 408,-8 414,-8 420,-14 420,-20 420,-20 420,-70.25 420,-70.25 420,-76.25 414,-82.25 408,-82.25 408,-82.25 20,-82.25 20,-82.25 14,-82.25 8,-76.25 8,-70.25 8,-70.25 8,-20 8,-20 8,-14 14,-8 20,-8"/>
<text xml:space="preserve" text-anchor="middle" x="214" y="-66.85" font-family="Helvetica,sans-Serif" font-size="12.00" fill="#33517e">Nucleo&#45;F401RE</text>
</g>
<!-- rtc -->
<g id="node1" class="node">
<title>rtc</title>
<path fill="white" stroke="#546e7a" d="M107,-158.75C107,-158.75 43,-158.75 43,-158.75 37,-158.75 31,-152.75 31,-146.75 31,-146.75 31,-134.75 31,-134.75 31,-128.75 37,-122.75 43,-122.75 43,-122.75 107,-122.75 107,-122.75 113,-122.75 119,-128.75 119,-134.75 119,-134.75 119,-146.75 119,-146.75 119,-152.75 113,-158.75 107,-158.75"/>
<text xml:space="preserve" text-anchor="middle" x="75" y="-143.8" font-family="Helvetica,sans-Serif" font-size="11.00">PCF8523 RTC</text>
<text xml:space="preserve" text-anchor="middle" x="75" y="-130.3" font-family="Helvetica,sans-Serif" font-size="11.00">@0x68</text>
</g>
<!-- hdr -->
<g id="node4" class="node">
<title>hdr</title>
<path fill="#ffe3c2" stroke="#c97f2c" d="M215.88,-52C215.88,-52 148.12,-52 148.12,-52 142.12,-52 136.12,-46 136.12,-40 136.12,-40 136.12,-28 136.12,-28 136.12,-22 142.12,-16 148.12,-16 148.12,-16 215.88,-16 215.88,-16 221.88,-16 227.88,-22 227.88,-28 227.88,-28 227.88,-40 227.88,-40 227.88,-46 221.88,-52 215.88,-52"/>
<text xml:space="preserve" text-anchor="middle" x="182" y="-30.3" font-family="Helvetica,sans-Serif" font-size="11.00">arduino_header</text>
</g>
<!-- rtc&#45;&gt;hdr -->
<g id="edge6" class="edge">
<title>rtc&#45;&gt;hdr</title>
<path fill="none" stroke="#c62828" stroke-dasharray="5,2" d="M84.85,-122.6C91.41,-112.27 100.77,-99.39 111.5,-90.25 117.4,-85.22 120.57,-86.58 127,-82.25 140.15,-73.38 153.68,-61.8 164.03,-52.32"/>
<text xml:space="preserve" text-anchor="middle" x="125.75" y="-92.2" font-family="Helvetica,sans-Serif" font-size="9.00" fill="#c62828">INT D7</text>
</g>
<!-- i2c -->
<g id="node5" class="node">
<title>i2c</title>
<path fill="#ebebeb" stroke="#555555" d="M105.75,-52C105.75,-52 28.25,-52 28.25,-52 22.25,-52 16.25,-46 16.25,-40 16.25,-40 16.25,-28 16.25,-28 16.25,-22 22.25,-16 28.25,-16 28.25,-16 105.75,-16 105.75,-16 111.75,-16 117.75,-22 117.75,-28 117.75,-28 117.75,-40 117.75,-40 117.75,-46 111.75,-52 105.75,-52"/>
<text xml:space="preserve" text-anchor="middle" x="67" y="-30.3" font-family="Helvetica,sans-Serif" font-size="11.00">i2c1 (arduino_i2c)</text>
</g>
<!-- rtc&#45;&gt;i2c -->
<g id="edge1" class="edge">
<title>rtc&#45;&gt;i2c</title>
<path fill="none" stroke="#546e7a" d="M60.84,-122.57C56.39,-116.13 52.04,-108.49 49.75,-100.75 44.93,-84.45 50.99,-65.69 57.22,-52.38"/>
<text xml:space="preserve" text-anchor="middle" x="59.88" y="-92.2" font-family="Helvetica,sans-Serif" font-size="9.00">0x68</text>
</g>
<!-- sd -->
<g id="node2" class="node">
<title>sd</title>
<path fill="white" stroke="#c62828" stroke-width="2" d="M180.88,-158.75C180.88,-158.75 149.12,-158.75 149.12,-158.75 143.12,-158.75 137.12,-152.75 137.12,-146.75 137.12,-146.75 137.12,-134.75 137.12,-134.75 137.12,-128.75 143.12,-122.75 149.12,-122.75 149.12,-122.75 180.88,-122.75 180.88,-122.75 186.88,-122.75 192.88,-128.75 192.88,-134.75 192.88,-134.75 192.88,-146.75 192.88,-146.75 192.88,-152.75 186.88,-158.75 180.88,-158.75"/>
<text xml:space="preserve" text-anchor="middle" x="165" y="-143.8" font-family="Helvetica,sans-Serif" font-size="11.00">SD card</text>
<text xml:space="preserve" text-anchor="middle" x="165" y="-130.3" font-family="Helvetica,sans-Serif" font-size="11.00">sdhc@0</text>
</g>
<!-- sd&#45;&gt;hdr -->
<g id="edge4" class="edge">
<title>sd&#45;&gt;hdr</title>
<path fill="none" stroke="#c62828" stroke-dasharray="5,2" d="M151.44,-122.17C145.88,-112.83 141.44,-101.08 144.75,-90.25 149.01,-76.31 158.1,-62.71 166.23,-52.49"/>
<text xml:space="preserve" text-anchor="middle" x="193.88" y="-92.2" font-family="Helvetica,sans-Serif" font-size="9.00" fill="#c62828">CS D10 (ACTIVE_LOW)</text>
</g>
<!-- spi -->
<g id="node6" class="node">
<title>spi</title>
<path fill="#ebebeb" stroke="#c62828" d="M399.62,-52C399.62,-52 258.38,-52 258.38,-52 252.38,-52 246.38,-46 246.38,-40 246.38,-40 246.38,-28 246.38,-28 246.38,-22 252.38,-16 258.38,-16 258.38,-16 399.62,-16 399.62,-16 405.62,-16 411.62,-22 411.62,-28 411.62,-28 411.62,-40 411.62,-40 411.62,-46 405.62,-52 399.62,-52"/>
<text xml:space="preserve" text-anchor="middle" x="329" y="-37.05" font-family="Helvetica,sans-Serif" font-size="11.00" fill="#c62828">spi1 (arduino_spi)</text>
<text xml:space="preserve" text-anchor="middle" x="329" y="-23.55" font-family="Helvetica,sans-Serif" font-size="11.00" fill="#c62828">cs&#45;gpios: LAST SHIELD WINS</text>
</g>
<!-- sd&#45;&gt;spi -->
<g id="edge2" class="edge">
<title>sd&#45;&gt;spi</title>
<path fill="none" stroke="#c62828" stroke-width="2" d="M193.86,-126.92C208.88,-119.85 227.33,-110.53 243,-100.75 266.59,-86.02 291.65,-66.34 308.59,-52.37"/>
<text xml:space="preserve" text-anchor="middle" x="268.3" y="-92.2" font-family="Helvetica,sans-Serif" font-size="9.00" fill="#c62828">reg 0</text>
</g>
<!-- winc -->
<g id="node3" class="node">
<title>winc</title>
<path fill="white" stroke="#c62828" stroke-width="2" d="M455.5,-158.75C455.5,-158.75 400.5,-158.75 400.5,-158.75 394.5,-158.75 388.5,-152.75 388.5,-146.75 388.5,-146.75 388.5,-134.75 388.5,-134.75 388.5,-128.75 394.5,-122.75 400.5,-122.75 400.5,-122.75 455.5,-122.75 455.5,-122.75 461.5,-122.75 467.5,-128.75 467.5,-134.75 467.5,-134.75 467.5,-146.75 467.5,-146.75 467.5,-152.75 461.5,-158.75 455.5,-158.75"/>
<text xml:space="preserve" text-anchor="middle" x="428" y="-143.8" font-family="Helvetica,sans-Serif" font-size="11.00">WINC1500</text>
<text xml:space="preserve" text-anchor="middle" x="428" y="-130.3" font-family="Helvetica,sans-Serif" font-size="11.00">winc1500@0</text>
</g>
<!-- winc&#45;&gt;hdr -->
<g id="edge5" class="edge">
<title>winc&#45;&gt;hdr</title>
<path fill="none" stroke="#c62828" stroke-dasharray="5,2" d="M387.51,-126.87C364.72,-119.49 335.8,-109.9 310.25,-100.75 298.03,-96.38 295.51,-93.71 283,-90.25 263,-84.72 255.77,-91.11 237,-82.25 221.75,-75.05 207.39,-62.44 197.17,-52.06"/>
<text xml:space="preserve" text-anchor="middle" x="345.12" y="-92.2" font-family="Helvetica,sans-Serif" font-size="9.00" fill="#c62828">CS D10 (flags 0!)</text>
</g>
<!-- winc&#45;&gt;hdr -->
<g id="edge7" class="edge">
<title>winc&#45;&gt;hdr</title>
<path fill="none" stroke="#c62828" stroke-dasharray="5,2" d="M416.01,-121.77C407.43,-110.56 394.81,-97.01 380,-90.25 351.05,-77.03 266.52,-94.14 237,-82.25 221.12,-75.86 206.59,-62.92 196.46,-52.2"/>
<text xml:space="preserve" text-anchor="middle" x="410.7" y="-92.2" font-family="Helvetica,sans-Serif" font-size="9.00" fill="#c62828">IRQ D7</text>
</g>
<!-- winc&#45;&gt;hdr -->
<g id="edge8" class="edge">
<title>winc&#45;&gt;hdr</title>
<path fill="none" stroke="#546e7a" d="M434.49,-121.93C437.08,-111.35 437.86,-98.44 430,-90.25 415.14,-74.76 256.97,-90.12 237,-82.25 221.07,-75.97 206.55,-63.03 196.43,-52.27"/>
<text xml:space="preserve" text-anchor="middle" x="468.36" y="-92.2" font-family="Helvetica,sans-Serif" font-size="9.00">RST D5 / EN D6</text>
</g>
<!-- winc&#45;&gt;spi -->
<g id="edge3" class="edge">
<title>winc&#45;&gt;spi</title>
<path fill="none" stroke="#c62828" stroke-width="2" d="M468.4,-125.37C492.34,-116.44 518.66,-105.75 522,-100.75 524.59,-96.87 524.81,-93.98 522,-90.25 508.23,-71.99 457.85,-57.93 412.02,-48.56"/>
<text xml:space="preserve" text-anchor="middle" x="534.53" y="-92.2" font-family="Helvetica,sans-Serif" font-size="9.00" fill="#c62828">reg 0</text>
</g>
<!-- legend -->
<g id="node7" class="node">
<title>legend</title>
<text xml:space="preserve" text-anchor="middle" x="577" y="-149.25" font-family="Helvetica,sans-Serif" font-size="10.00" fill="#c62828">A: cs&#45;gpios clobbered (silent)</text>
<text xml:space="preserve" text-anchor="middle" x="577" y="-137.25" font-family="Helvetica,sans-Serif" font-size="10.00" fill="#c62828">B: reg 0 twice (1 warning)</text>
<text xml:space="preserve" text-anchor="middle" x="577" y="-125.25" font-family="Helvetica,sans-Serif" font-size="10.00" fill="#c62828">C: D7 double&#45;booked (silent)</text>
</g>
</g>
</svg>
